<?xml version="1.0" encoding="UTF-8" standalone="no"?>
<!DOCTYPE svg PUBLIC "-//W3C//DTD SVG 1.1//EN" "http://www.w3.org/Graphics/SVG/1.1/DTD/svg11.dtd">
<svg width="100%" height="100%" viewBox="0 0 1200 716" version="1.1" xmlns="http://www.w3.org/2000/svg" xmlns:xlink="http://www.w3.org/1999/xlink" xml:space="preserve" xmlns:serif="http://www.serif.com/" style="fill-rule:evenodd;clip-rule:evenodd;stroke-linejoin:round;stroke-miterlimit:1.41421;">
    <g id="script" transform="matrix(1,0,0,1,-212.573,-165.39)">
        <g id="pyladies" transform="matrix(2.51024,0,0,2.51024,361.317,469.011)">
            <path id="path2841-2-0-9" d="M145.813,0.5C123.746,1.652 126.781,69.375 126.781,69.375C126.781,69.375 125.844,76.852 122.688,81.156C119.531,85.461 114.242,88.538 112.906,87.188C112.906,87.188 121.519,63.6 121.125,51C121.124,50.978 109,51 109,51C109,59.183 102.54,87.224 95.469,88.563C88.398,89.901 90.405,82.509 90.405,74.932C90.405,63.775 91.925,51.541 83.844,50.531C75.763,49.521 67.156,63.313 67.156,63.313C67.156,63.313 68.175,55.228 60.094,51.188C52.013,47.147 31.813,57.25 31.813,57.25C33.694,48.718 30.278,37.958 20.688,38.063C12.219,38.574 6.251,44.469 0.5,49.156L8.594,57.25C8.594,57.25 16.647,48.168 20.688,53.219C24.728,58.27 5.134,152.045 5.134,152.045L17.259,152.045L28.781,103.719C28.781,103.719 55.043,105.748 60.094,99.688C65.145,93.627 69.188,77.469 69.188,77.469C69.188,77.469 80.307,65.325 79.296,69.366C78.286,73.406 77.262,100.677 82.313,101.688C87.363,102.698 97.469,101.688 97.469,101.688L85.219,140.969L71.219,142.094L69.188,152.219L92.438,152.219L108.75,101.438C108.75,101.438 116.072,100.388 120.219,98.125C124.366,95.862 127.605,91.856 130.594,88.875C131.252,93.936 131.46,97.915 137.656,101.125C145.687,105.285 156.835,102.286 161.625,98.625C173.242,106.201 182.844,97.125 182.844,97.125C182.844,97.125 193.939,107.227 200,97.125C216.668,108.237 225.75,96.656 225.75,96.656C225.75,96.656 226.532,102.114 240.563,103.063C254.593,104.011 261.281,90.406 261.281,90.406C264.026,93.89 265.421,101.304 272.188,102.031C278.954,102.758 285.715,98.425 290.844,93.063C294.663,100.26 298.557,100.822 303.438,102.563C308.318,104.303 317.738,99.113 321.719,96.375C326.795,105.513 341.737,104.835 346.125,98.031C346.186,98.509 347.309,99.53 353.219,101.5C355.561,99.79 356.227,96.97 359.031,93.156C356.506,92.146 351.406,89.625 351.406,89.625C349.903,81.212 345.38,73.406 340.563,65.656L345.625,54.563L335.531,51.531C329.307,65.036 324.064,77.009 319.875,84.969C315.686,92.928 300.187,93.238 297.156,86.344C317.451,71.154 319.699,47.772 302.188,50.006C285.981,52.073 287.446,80.543 287.446,80.543C287.446,80.543 281.487,86.334 273.406,87.344C265.325,88.354 275.969,51.344 275.969,51.344L264.875,51.344C264.875,51.344 258.197,77.705 250.188,86.344C242.969,94.13 239.851,89.485 237.875,88.563C235.828,87.607 260.629,0.551 260.629,0.551L246.463,0.678L231.656,52.063C223.575,51.899 214.487,50.737 206.406,57.938C195.546,68.14 199.743,90.999 187.188,86.886C183.147,87.896 194.031,56.125 194.031,56.125C193.292,50.953 177.302,48.598 169.344,53.5C153.557,63.224 154.998,82.523 152.031,89.563C145.035,92.797 143.097,90.659 140.333,83.563C151.959,69.964 170.109,1.51 146.875,0.5C146.512,0.484 146.163,0.482 145.813,0.5ZM146.672,16.833C146.78,16.818 146.877,16.824 146.985,16.833C151.813,17.225 137.375,63.813 137.375,63.813C135.877,63.317 139.911,17.783 146.672,16.833ZM299.522,61.768C301.828,59.829 303.505,60.235 303.866,61.567C304.227,62.899 295.165,74.821 295.165,74.821C295.214,70.338 297.217,63.707 299.522,61.768ZM224.265,64.448C227.158,64.366 228.301,63.95 229.719,65.031L225.125,85.375C224.115,88.447 210.421,90.931 208.906,83.906C207.486,77.319 211.357,72.169 214.171,68.635C216.444,65.782 220.546,64.552 224.265,64.448ZM179.235,65.015C180.021,65 180.843,65.13 181.672,65.421L176.516,83.943C173.991,87.478 167.238,89 166.594,83.844C165.755,77.131 171.631,65.166 179.235,65.015ZM52.875,65.031C54.211,65.06 55.406,65.384 56.344,66.188C61.344,70.473 56.93,85.352 51.844,88.75C45.729,92.835 33.156,89.969 33.156,89.969L38.156,70.688C38.737,70.688 47.085,64.906 52.875,65.031ZM336.375,74.625C336.375,74.625 342.465,87.615 341.375,89.625C338.649,94.654 329.056,89.545 329.594,87.844L336.375,74.625Z" style="fill:rgb(250,2,60);fill-rule:nonzero;"/>
            <path id="path2915-9-9-9" d="M274.984,27.19C285.895,26.819 285.254,43.848 274.265,42.698C266.398,41.875 264.074,27.561 274.984,27.19Z" style="fill:rgb(250,2,60);fill-rule:nonzero;"/>
        </g>
        <g id="tower" transform="matrix(1.07026,0,0,1.06489,-243.358,7.84326)">
            <g transform="matrix(0.973523,0,0,0.667491,229.048,354.319)">
                <path d="M611.978,89.003L632.531,89.003L636.899,298.174L607.611,298.174L611.978,89.003Z" style="fill:rgb(250,2,60);fill-rule:nonzero;"/>
            </g>
            <g transform="matrix(0.93435,0,0,0.93906,351.859,144.838)">
                <path d="M506.589,273.472C509.842,274.506 513.307,275.064 516.903,275.064C520.498,275.064 523.964,274.506 527.216,273.472L527.372,278.576L506.433,278.576L506.589,273.472Z"
style="fill:rgb(250,2,60);fill-rule:nonzero;"/>
            </g>
            <g transform="matrix(1,0,0,1,263.653,169.329)">
                <path d="M571.379,170.462L571.584,170.464L571.788,170.468L571.992,170.472L572.195,170.478L572.398,170.485L572.601,170.493L572.804,170.503L573.006,170.514L573.208,170.526L573.409,170.539L573.61,170.554L573.811,170.57L574.011,170.587L574.212,170.606L574.411,170.625L574.611,170.646L574.81,170.668L575.008,170.692L575.206,170.716L575.404,170.742L575.602,170.769L575.799,170.797L575.996,170.827L576.192,170.858L576.388,170.889L576.583,170.923L576.779,170.957L576.973,170.992L577.167,171.029L577.361,171.067L577.555,171.106L577.748,171.146L577.94,171.187L578.133,171.23L578.324,171.273L578.516,171.318L578.706,171.364L578.897,171.411L579.087,171.46L579.276,171.509L579.465,171.56L579.654,171.611L579.842,171.664L580.029,171.718L580.217,171.773L580.403,171.829L580.589,171.887L580.775,171.945L580.96,172.005L581.145,172.065L581.329,172.127L581.513,172.19L581.696,172.254L581.879,172.319L582.061,172.385L582.242,172.452L582.423,172.52L582.604,172.59L582.784,172.66L582.964,172.732L583.143,172.804L583.321,172.878L583.499,172.952L583.676,173.028L583.853,173.105L584.029,173.183L584.205,173.262L584.38,173.341L584.554,173.422L584.728,173.504L584.902,173.587L585.075,173.671L585.247,173.756L585.418,173.842L585.589,173.929L585.76,174.017L585.93,174.106L586.099,174.196L586.267,174.287L586.435,174.379L586.603,174.472L586.77,174.566L586.936,174.661L587.101,174.757L587.266,174.853L587.43,174.951L587.594,175.05L587.757,175.15L587.919,175.25L588.081,175.352L588.242,175.455L588.402,175.558L588.562,175.663L588.721,175.768L588.879,175.874L589.037,175.982L589.194,176.09L589.35,176.199L589.506,176.309L589.66,176.42L589.815,176.531L589.968,176.644L590.121,176.758L590.273,176.872L590.424,176.988L590.575,177.104L590.725,177.221L590.874,177.339L591.023,177.458L591.171,177.578L591.318,177.698L591.464,177.82L591.61,177.942L591.754,178.065L591.898,178.19L592.042,178.314L592.184,178.44L592.326,178.567L592.467,178.694L592.607,178.823L592.747,178.952L592.886,179.082L593.024,179.212L593.161,179.344L593.297,179.476L593.433,179.609L593.568,179.743L593.701,179.878L593.835,180.014L593.967,180.15L594.099,180.287L594.229,180.425L594.359,180.564L594.488,180.703L594.617,180.844L594.744,180.985L594.871,181.126L594.996,181.269L595.121,181.412L595.245,181.556L595.369,181.701L595.491,181.847L595.612,181.993L595.733,182.14L595.853,182.288L595.972,182.436L596.09,182.586L596.207,182.736L596.323,182.886L596.439,183.038L596.553,183.19L596.667,183.343L596.779,183.496L596.891,183.65L597.002,183.805L597.112,183.961L597.221,184.117L597.329,184.274L597.437,184.432L597.543,184.59L597.648,184.749L597.753,184.909L597.856,185.069L597.959,185.23L598.06,185.392L598.161,185.554L598.261,185.717L598.36,185.881L598.457,186.045L598.554,186.21L598.65,186.375L598.745,186.541L598.839,186.708L598.932,186.875L599.024,187.043L599.115,187.212L599.205,187.381L599.294,187.551L599.382,187.721L599.469,187.892L599.555,188.064L599.64,188.236L599.724,188.409L599.807,188.582L599.889,188.756L599.969,188.931L600.049,189.106L600.128,189.282L600.206,189.458L600.283,189.635L600.358,189.812L600.433,189.99L600.507,190.168L600.579,190.347L600.651,190.527L600.721,190.707L600.79,190.887L600.859,191.068L600.926,191.25L600.992,191.432L601.057,191.615L601.121,191.798L601.184,191.982L601.245,192.166L601.306,192.351L601.366,192.536L601.424,192.721L601.481,192.908L601.538,193.094L601.593,193.281L601.647,193.469L601.7,193.657L601.751,193.846L601.802,194.035L601.851,194.224L601.899,194.414L601.947,194.604L601.993,194.795L602.037,194.987L602.081,195.178L602.124,195.37L602.165,195.563L602.205,195.756L602.244,195.949L602.282,196.143L602.319,196.338L602.354,196.532L602.388,196.727L602.421,196.923L602.453,197.119L602.484,197.315L602.513,197.512L602.542,197.709L602.569,197.906L602.594,198.104L602.619,198.303L602.642,198.501L602.665,198.7L602.685,198.9L602.705,199.099L602.724,199.299L602.741,199.5L602.757,199.701L602.771,199.902L602.785,200.103L602.797,200.305L602.808,200.507L602.818,200.71L602.826,200.913L602.833,201.116L602.839,201.319L602.843,201.523L602.847,201.727L602.848,201.931L602.849,202.136L602.848,202.341L602.847,202.545L602.843,202.749L602.839,202.953L602.833,203.157L602.826,203.36L602.818,203.563L602.808,203.765L602.797,203.967L602.785,204.169L602.771,204.371L602.757,204.572L602.741,204.773L602.724,204.973L602.705,205.173L602.685,205.373L602.665,205.572L602.642,205.771L602.619,205.97L602.594,206.168L602.569,206.366L602.542,206.563L602.513,206.76L602.484,206.957L602.453,207.153L602.421,207.349L602.388,207.545L602.354,207.74L602.319,207.935L602.282,208.129L602.244,208.323L602.205,208.516L602.165,208.709L602.124,208.902L602.081,209.094L602.037,209.286L601.993,209.477L601.947,209.668L601.899,209.858L601.851,210.048L601.802,210.238L601.751,210.427L601.7,210.615L601.647,210.803L601.593,210.991L601.538,211.178L601.481,211.365L601.424,211.551L601.366,211.737L601.306,211.922L601.245,212.106L601.184,212.291L601.121,212.474L601.057,212.657L600.992,212.84L600.926,213.022L600.859,213.204L600.79,213.385L600.721,213.566L600.651,213.746L600.579,213.925L600.507,214.104L600.433,214.282L600.358,214.46L600.283,214.638L600.206,214.814L600.128,214.991L600.049,215.166L599.969,215.341L599.889,215.516L599.807,215.69L599.724,215.863L599.64,216.036L599.555,216.208L599.469,216.38L599.382,216.551L599.294,216.721L599.205,216.891L599.115,217.06L599.024,217.229L598.932,217.397L598.839,217.564L598.745,217.731L598.65,217.897L598.554,218.063L598.457,218.228L598.36,218.392L598.261,218.555L598.161,218.718L598.06,218.881L597.959,219.042L597.856,219.203L597.753,219.364L597.648,219.523L597.543,219.682L597.437,219.841L597.329,219.998L597.221,220.155L597.112,220.311L597.002,220.467L596.891,220.622L596.779,220.776L596.667,220.93L596.553,221.082L596.439,221.235L596.323,221.386L596.207,221.537L596.09,221.687L595.972,221.836L595.853,221.984L595.733,222.132L595.612,222.279L595.491,222.426L595.369,222.571L595.245,222.716L595.121,222.86L594.996,223.003L594.871,223.146L594.744,223.288L594.617,223.429L594.488,223.569L594.359,223.708L594.229,223.847L594.099,223.985L593.967,224.122L593.835,224.259L593.701,224.394L593.568,224.529L593.433,224.663L593.297,224.796L593.161,224.929L593.024,225.06L592.886,225.191L592.747,225.321L592.607,225.45L592.467,225.578L592.326,225.706L592.184,225.832L592.042,225.958L591.898,226.083L591.754,226.207L591.61,226.33L591.464,226.452L591.318,226.574L591.171,226.695L591.023,226.814L590.874,226.933L590.725,227.051L590.575,227.168L590.424,227.285L590.273,227.4L590.121,227.515L589.968,227.628L589.815,227.741L589.66,227.853L589.506,227.964L589.35,228.074L589.194,228.183L589.037,228.291L588.879,228.398L588.721,228.504L588.562,228.61L588.402,228.714L588.242,228.818L588.081,228.92L587.919,229.022L587.757,229.123L587.594,229.222L587.43,229.321L587.266,229.419L587.101,229.516L586.936,229.612L586.77,229.707L586.603,229.8L586.435,229.893L586.267,229.985L586.099,230.076L585.93,230.166L585.76,230.255L585.589,230.343L585.418,230.43L585.247,230.516L585.075,230.601L584.902,230.685L584.728,230.768L584.554,230.85L584.38,230.931L584.205,231.011L584.029,231.09L583.853,231.167L583.676,231.244L583.499,231.32L583.321,231.395L583.143,231.468L582.964,231.541L582.784,231.612L582.604,231.683L582.423,231.752L582.242,231.82L582.061,231.887L581.879,231.953L581.696,232.018L581.513,232.082L581.329,232.145L581.145,232.207L580.96,232.268L580.775,232.327L580.589,232.386L580.403,232.443L580.217,232.499L580.029,232.554L579.842,232.608L579.654,232.661L579.465,232.713L579.276,232.763L579.087,232.813L578.897,232.861L578.706,232.908L578.516,232.954L578.324,232.999L578.133,233.043L577.94,233.085L577.748,233.126L577.555,233.167L577.361,233.206L577.167,233.243L576.973,233.28L576.779,233.316L576.583,233.35L576.388,233.383L576.192,233.415L575.996,233.445L575.799,233.475L575.602,233.503L575.404,233.53L575.206,233.556L575.008,233.581L574.81,233.604L574.611,233.626L574.411,233.647L574.212,233.667L574.011,233.685L573.811,233.702L573.61,233.718L573.409,233.733L573.208,233.746L573.006,233.758L572.804,233.769L572.601,233.779L572.398,233.787L572.195,233.794L571.992,233.8L571.788,233.805L571.584,233.808L571.379,233.81L571.175,233.811L570.97,233.81L570.766,233.808L570.561,233.805L570.358,233.8L570.154,233.794L569.951,233.787L569.748,233.779L569.546,233.769L569.344,233.758L569.142,233.746L568.94,233.733L568.739,233.718L568.538,233.702L568.338,233.685L568.138,233.667L567.938,233.647L567.739,233.626L567.54,233.604L567.341,233.581L567.143,233.556L566.945,233.53L566.747,233.503L566.55,233.475L566.354,233.445L566.157,233.415L565.961,233.383L565.766,233.35L565.571,233.316L565.376,233.28L565.182,233.243L564.988,233.206L564.795,233.167L564.601,233.126L564.409,233.085L564.217,233.043L564.025,232.999L563.834,232.954L563.643,232.908L563.453,232.861L563.263,232.813L563.073,232.763L562.884,232.713L562.696,232.661L562.508,232.608L562.32,232.554L562.133,232.499L561.946,232.443L561.76,232.386L561.574,232.327L561.389,232.268L561.204,232.207L561.02,232.145L560.837,232.082L560.653,232.018L560.471,231.953L560.289,231.887L560.107,231.82L559.926,231.752L559.745,231.683L559.565,231.612L559.386,231.541L559.207,231.468L559.028,231.395L558.85,231.32L558.673,231.244L558.496,231.167L558.32,231.09L558.144,231.011L557.969,230.931L557.795,230.85L557.621,230.768L557.448,230.685L557.275,230.601L557.103,230.516L556.931,230.43L556.76,230.343L556.59,230.255L556.42,230.166L556.251,230.076L556.082,229.985L555.914,229.893L555.747,229.8L555.58,229.707L555.414,229.612L555.248,229.516L555.083,229.419L554.919,229.321L554.755,229.222L554.593,229.123L554.43,229.022L554.269,228.92L554.108,228.818L553.947,228.714L553.788,228.61L553.629,228.504L553.47,228.398L553.313,228.291L553.156,228.183L552.999,228.074L552.844,227.964L552.689,227.853L552.535,227.741L552.381,227.628L552.228,227.515L552.076,227.4L551.925,227.285L551.774,227.168L551.624,227.051L551.475,226.933L551.326,226.814L551.179,226.695L551.032,226.574L550.885,226.452L550.74,226.33L550.595,226.207L550.451,226.083L550.308,225.958L550.165,225.832L550.023,225.706L549.882,225.578L549.742,225.45L549.602,225.321L549.464,225.191L549.326,225.06L549.189,224.929L549.052,224.796L548.917,224.663L548.782,224.529L548.648,224.394L548.515,224.259L548.382,224.122L548.251,223.985L548.12,223.847L547.99,223.708L547.861,223.569L547.733,223.429L547.605,223.288L547.479,223.146L547.353,223.003L547.228,222.86L547.104,222.716L546.981,222.571L546.858,222.426L546.737,222.279L546.616,222.132L546.496,221.984L546.378,221.836L546.26,221.687L546.142,221.537L546.026,221.386L545.911,221.235L545.796,221.082L545.683,220.93L545.57,220.776L545.458,220.622L545.347,220.467L545.237,220.311L545.128,220.155L545.02,219.998L544.913,219.841L544.806,219.682L544.701,219.523L544.597,219.364L544.493,219.203L544.391,219.042L544.289,218.881L544.188,218.718L544.089,218.555L543.99,218.392L543.892,218.228L543.795,218.063L543.699,217.897L543.604,217.731L543.51,217.564L543.417,217.397L543.325,217.229L543.234,217.06L543.145,216.891L543.056,216.721L542.968,216.551L542.881,216.38L542.795,216.208L542.71,216.036L542.626,215.863L542.543,215.69L542.461,215.516L542.38,215.341L542.3,215.166L542.221,214.991L542.143,214.814L542.067,214.638L541.991,214.46L541.916,214.282L541.843,214.104L541.77,213.925L541.699,213.746L541.628,213.566L541.559,213.385L541.491,213.204L541.423,213.022L541.357,212.84L541.292,212.657L541.228,212.474L541.166,212.291L541.104,212.106L541.043,211.922L540.984,211.737L540.925,211.551L540.868,211.365L540.812,211.178L540.757,210.991L540.703,210.803L540.65,210.615L540.598,210.427L540.548,210.238L540.498,210.048L540.45,209.858L540.403,209.668L540.357,209.477L540.312,209.286L540.268,209.094L540.226,208.902L540.184,208.709L540.144,208.516L540.105,208.323L540.067,208.129L540.031,207.935L539.995,207.74L539.961,207.545L539.928,207.349L539.896,207.153L539.865,206.957L539.836,206.76L539.808,206.563L539.781,206.366L539.755,206.168L539.73,205.97L539.707,205.771L539.685,205.572L539.664,205.373L539.644,205.173L539.626,204.973L539.609,204.773L539.593,204.572L539.578,204.371L539.564,204.169L539.552,203.967L539.541,203.765L539.532,203.563L539.523,203.36L539.516,203.157L539.511,202.953L539.506,202.749L539.503,202.545L539.501,202.341L539.5,202.136L539.501,201.931L539.503,201.727L539.506,201.523L539.511,201.319L539.516,201.116L539.523,200.913L539.532,200.71L539.541,200.507L539.552,200.305L539.564,200.103L539.578,199.902L539.593,199.701L539.609,199.5L539.626,199.299L539.644,199.099L539.664,198.9L539.685,198.7L539.707,198.501L539.73,198.303L539.755,198.104L539.781,197.906L539.808,197.709L539.836,197.512L539.865,197.315L539.896,197.119L539.928,196.923L539.961,196.727L539.995,196.532L540.031,196.338L540.067,196.143L540.105,195.949L540.144,195.756L540.184,195.563L540.226,195.37L540.268,195.178L540.312,194.987L540.357,194.795L540.403,194.604L540.45,194.414L540.498,194.224L540.548,194.035L540.598,193.846L540.65,193.657L540.703,193.469L540.757,193.281L540.812,193.094L540.868,192.908L540.925,192.721L540.984,192.536L541.043,192.351L541.104,192.166L541.166,191.982L541.228,191.798L541.292,191.615L541.357,191.432L541.423,191.25L541.491,191.068L541.559,190.887L541.628,190.707L541.699,190.527L541.77,190.347L541.843,190.168L541.916,189.99L541.991,189.812L542.067,189.635L542.143,189.458L542.221,189.282L542.3,189.106L542.38,188.931L542.461,188.756L542.543,188.582L542.626,188.409L542.71,188.236L542.795,188.064L542.881,187.892L542.968,187.721L543.056,187.551L543.145,187.381L543.234,187.212L543.325,187.043L543.417,186.875L543.51,186.708L543.604,186.541L543.699,186.375L543.795,186.21L543.892,186.045L543.99,185.881L544.089,185.717L544.188,185.554L544.289,185.392L544.391,185.23L544.493,185.069L544.597,184.909L544.701,184.749L544.806,184.59L544.913,184.432L545.02,184.274L545.128,184.117L545.237,183.961L545.347,183.805L545.458,183.65L545.57,183.496L545.683,183.343L545.796,183.19L545.911,183.038L546.026,182.886L546.142,182.736L546.26,182.586L546.378,182.436L546.496,182.288L546.616,182.14L546.737,181.993L546.858,181.847L546.981,181.701L547.104,181.556L547.228,181.412L547.353,181.269L547.479,181.126L547.605,180.985L547.733,180.844L547.861,180.703L547.99,180.564L548.12,180.425L548.251,180.287L548.382,180.15L548.515,180.014L548.648,179.878L548.782,179.743L548.917,179.609L549.052,179.476L549.189,179.344L549.326,179.212L549.464,179.082L549.602,178.952L549.742,178.823L549.882,178.694L550.023,178.567L550.165,178.44L550.308,178.314L550.451,178.19L550.595,178.065L550.74,177.942L550.885,177.82L551.032,177.698L551.179,177.578L551.326,177.458L551.475,177.339L551.624,177.221L551.774,177.104L551.925,176.988L552.076,176.872L552.228,176.758L552.381,176.644L552.535,176.531L552.689,176.42L552.844,176.309L552.999,176.199L553.156,176.09L553.313,175.982L553.47,175.874L553.629,175.768L553.788,175.663L553.947,175.558L554.108,175.455L554.269,175.352L554.43,175.25L554.593,175.15L554.755,175.05L554.919,174.951L555.083,174.853L555.248,174.757L555.414,174.661L555.58,174.566L555.747,174.472L555.914,174.379L556.082,174.287L556.251,174.196L556.42,174.106L556.59,174.017L556.76,173.929L556.931,173.842L557.103,173.756L557.275,173.671L557.448,173.587L557.621,173.504L557.795,173.422L557.969,173.341L558.144,173.262L558.32,173.183L558.496,173.105L558.673,173.028L558.85,172.952L559.028,172.878L559.207,172.804L559.386,172.732L559.565,172.66L559.745,172.59L559.926,172.52L560.107,172.452L560.289,172.385L560.471,172.319L560.653,172.254L560.837,172.19L561.02,172.127L561.204,172.065L561.389,172.005L561.574,171.945L561.76,171.887L561.946,171.829L562.133,171.773L562.32,171.718L562.508,171.664L562.696,171.611L562.884,171.56L563.073,171.509L563.263,171.46L563.453,171.411L563.643,171.364L563.834,171.318L564.025,171.273L564.217,171.23L564.409,171.187L564.601,171.146L564.795,171.106L564.988,171.067L565.182,171.029L565.376,170.992L565.571,170.957L565.766,170.923L565.961,170.889L566.157,170.858L566.354,170.827L566.55,170.797L566.747,170.769L566.945,170.742L567.143,170.716L567.341,170.692L567.54,170.668L567.739,170.646L567.938,170.625L568.138,170.606L568.338,170.587L568.538,170.57L568.739,170.554L568.94,170.539L569.142,170.526L569.344,170.514L569.546,170.503L569.748,170.493L569.951,170.485L570.154,170.478L570.358,170.472L570.561,170.468L570.766,170.464L570.97,170.462L571.175,170.462L571.379,170.462ZM570.988,173.279L570.801,173.281L570.614,173.284L570.428,173.288L570.243,173.294L570.057,173.3L569.872,173.308L569.687,173.317L569.503,173.326L569.318,173.338L569.135,173.35L568.951,173.363L568.768,173.378L568.585,173.393L568.402,173.41L568.22,173.428L568.038,173.447L567.857,173.468L567.676,173.489L567.495,173.511L567.315,173.535L567.134,173.559L566.955,173.585L566.775,173.612L566.596,173.64L566.418,173.669L566.24,173.699L566.062,173.73L565.884,173.763L565.707,173.796L565.531,173.831L565.354,173.866L565.178,173.903L565.003,173.94L564.828,173.979L564.653,174.019L564.479,174.06L564.305,174.102L564.131,174.145L563.958,174.189L563.786,174.234L563.614,174.28L563.442,174.327L563.27,174.375L563.099,174.424L562.929,174.474L562.759,174.526L562.589,174.578L562.42,174.631L562.251,174.685L562.083,174.741L561.915,174.797L561.748,174.854L561.581,174.912L561.415,174.972L561.249,175.032L561.083,175.093L560.918,175.155L560.754,175.218L560.59,175.283L560.426,175.348L560.263,175.414L560.101,175.481L559.938,175.549L559.777,175.618L559.616,175.688L559.455,175.759L559.295,175.83L559.136,175.903L558.976,175.977L558.818,176.052L558.66,176.127L558.503,176.204L558.346,176.281L558.189,176.36L558.033,176.439L557.878,176.519L557.723,176.6L557.569,176.682L557.415,176.765L557.262,176.849L557.11,176.934L556.958,177.019L556.806,177.106L556.655,177.193L556.505,177.281L556.355,177.371L556.206,177.461L556.058,177.551L555.91,177.643L555.762,177.736L555.615,177.829L555.469,177.924L555.324,178.019L555.179,178.115L555.034,178.212L554.891,178.31L554.748,178.408L554.605,178.508L554.463,178.608L554.322,178.709L554.181,178.811L554.041,178.914L553.902,179.018L553.763,179.122L553.625,179.227L553.488,179.333L553.351,179.44L553.215,179.548L553.079,179.656L552.945,179.766L552.811,179.875L552.677,179.986L552.544,180.098L552.412,180.21L552.281,180.323L552.15,180.437L552.02,180.552L551.891,180.667L551.762,180.784L551.634,180.901L551.507,181.018L551.381,181.137L551.255,181.256L551.13,181.376L551.005,181.497L550.882,181.618L550.759,181.74L550.637,181.863L550.515,181.987L550.395,182.111L550.275,182.236L550.155,182.362L550.037,182.489L549.919,182.616L549.802,182.744L549.686,182.872L549.571,183.002L549.456,183.132L549.342,183.262L549.229,183.394L549.117,183.526L549.005,183.658L548.894,183.792L548.784,183.926L548.675,184.061L548.567,184.196L548.459,184.332L548.352,184.469L548.246,184.606L548.141,184.744L548.037,184.883L547.933,185.022L547.83,185.162L547.729,185.303L547.627,185.444L547.527,185.586L547.428,185.728L547.329,185.871L547.231,186.015L547.135,186.159L547.039,186.304L546.943,186.449L546.849,186.595L546.756,186.742L546.663,186.889L546.571,187.037L546.48,187.186L546.391,187.335L546.301,187.484L546.213,187.635L546.126,187.785L546.039,187.937L545.954,188.089L545.869,188.241L545.785,188.394L545.703,188.548L545.621,188.702L545.54,188.856L545.459,189.011L545.38,189.167L545.302,189.324L545.225,189.48L545.148,189.637L545.073,189.795L544.998,189.954L544.924,190.113L544.852,190.272L544.78,190.432L544.709,190.592L544.639,190.753L544.57,190.915L544.502,191.077L544.435,191.239L544.369,191.402L544.304,191.565L544.24,191.729L544.177,191.894L544.115,192.058L544.054,192.224L543.994,192.389L543.935,192.556L543.876,192.723L543.819,192.89L543.763,193.057L543.708,193.225L543.654,193.394L543.6,193.563L543.548,193.732L543.497,193.902L543.447,194.072L543.398,194.243L543.35,194.414L543.303,194.586L543.257,194.758L543.212,194.93L543.168,195.103L543.125,195.276L543.083,195.45L543.042,195.624L543.003,195.798L542.964,195.973L542.926,196.148L542.89,196.324L542.854,196.5L542.82,196.677L542.786,196.853L542.754,197.031L542.723,197.208L542.693,197.386L542.664,197.564L542.636,197.743L542.609,197.923L542.583,198.102L542.559,198.281L542.535,198.462L542.513,198.642L542.492,198.823L542.471,199.004L542.452,199.186L542.434,199.368L542.418,199.55L542.402,199.733L542.387,199.916L542.374,200.099L542.362,200.283L542.351,200.466L542.341,200.651L542.332,200.835L542.324,201.02L542.318,201.205L542.313,201.391L542.309,201.577L542.306,201.763L542.304,201.949L542.303,202.136L542.304,202.323L542.306,202.509L542.309,202.696L542.313,202.881L542.318,203.067L542.324,203.252L542.332,203.437L542.341,203.622L542.351,203.806L542.362,203.99L542.374,204.173L542.387,204.357L542.402,204.539L542.418,204.722L542.434,204.905L542.452,205.086L542.471,205.268L542.492,205.449L542.513,205.63L542.535,205.811L542.559,205.991L542.583,206.171L542.609,206.35L542.636,206.529L542.664,206.708L542.693,206.886L542.723,207.064L542.754,207.242L542.786,207.419L542.82,207.596L542.854,207.772L542.89,207.948L542.926,208.124L542.964,208.299L543.003,208.474L543.042,208.649L543.083,208.823L543.125,208.996L543.168,209.169L543.212,209.342L543.257,209.515L543.303,209.687L543.35,209.858L543.398,210.029L543.447,210.2L543.497,210.37L543.548,210.54L543.6,210.71L543.654,210.879L543.708,211.047L543.763,211.215L543.819,211.383L543.876,211.55L543.935,211.717L543.994,211.883L544.054,212.049L544.115,212.214L544.177,212.379L544.24,212.543L544.304,212.707L544.369,212.87L544.435,213.033L544.502,213.196L544.57,213.357L544.639,213.519L544.709,213.68L544.78,213.84L544.852,214L544.924,214.16L544.998,214.319L545.073,214.477L545.148,214.635L545.225,214.792L545.302,214.949L545.38,215.105L545.459,215.261L545.54,215.416L545.621,215.571L545.703,215.725L545.785,215.878L545.869,216.031L545.954,216.184L546.039,216.336L546.126,216.487L546.213,216.638L546.301,216.788L546.391,216.938L546.48,217.086L546.571,217.235L546.663,217.383L546.756,217.53L546.849,217.677L546.943,217.823L547.039,217.969L547.135,218.113L547.231,218.258L547.329,218.401L547.428,218.544L547.527,218.687L547.627,218.829L547.729,218.97L547.83,219.11L547.933,219.25L548.037,219.39L548.141,219.528L548.246,219.666L548.352,219.804L548.459,219.94L548.567,220.076L548.675,220.212L548.784,220.347L548.894,220.48L549.005,220.614L549.117,220.747L549.229,220.879L549.342,221.01L549.456,221.141L549.571,221.271L549.686,221.4L549.802,221.529L549.919,221.657L550.037,221.784L550.155,221.91L550.275,222.036L550.395,222.161L550.515,222.285L550.637,222.409L550.759,222.532L550.882,222.654L551.005,222.776L551.13,222.896L551.255,223.016L551.381,223.135L551.507,223.254L551.634,223.372L551.762,223.489L551.891,223.605L552.02,223.72L552.15,223.835L552.281,223.949L552.412,224.062L552.545,224.175L552.677,224.286L552.811,224.397L552.945,224.507L553.079,224.616L553.215,224.725L553.351,224.832L553.488,224.939L553.625,225.045L553.763,225.15L553.902,225.255L554.041,225.358L554.181,225.461L554.322,225.563L554.463,225.664L554.605,225.764L554.748,225.864L554.891,225.962L555.034,226.06L555.179,226.157L555.324,226.253L555.469,226.349L555.615,226.443L555.762,226.536L555.91,226.629L556.058,226.721L556.206,226.812L556.355,226.902L556.505,226.991L556.655,227.079L556.806,227.167L556.958,227.253L557.11,227.339L557.262,227.423L557.415,227.507L557.569,227.59L557.723,227.672L557.878,227.753L558.033,227.834L558.189,227.913L558.346,227.991L558.502,228.069L558.66,228.145L558.818,228.221L558.976,228.295L559.135,228.369L559.295,228.442L559.455,228.514L559.616,228.585L559.777,228.655L559.938,228.724L560.1,228.792L560.263,228.859L560.426,228.925L560.59,228.99L560.754,229.054L560.918,229.117L561.083,229.179L561.249,229.241L561.415,229.301L561.581,229.36L561.748,229.418L561.915,229.476L562.083,229.532L562.252,229.587L562.42,229.641L562.589,229.695L562.759,229.747L562.929,229.798L563.1,229.848L563.27,229.897L563.442,229.945L563.614,229.993L563.786,230.039L563.958,230.084L564.132,230.128L564.305,230.171L564.479,230.213L564.653,230.253L564.828,230.293L565.003,230.332L565.178,230.37L565.354,230.406L565.531,230.442L565.707,230.476L565.884,230.51L566.062,230.542L566.24,230.573L566.418,230.603L566.596,230.632L566.776,230.66L566.955,230.687L567.134,230.713L567.315,230.738L567.495,230.761L567.676,230.784L567.857,230.805L568.038,230.825L568.22,230.844L568.402,230.862L568.585,230.879L568.768,230.895L568.951,230.909L569.134,230.922L569.318,230.935L569.503,230.946L569.687,230.956L569.872,230.965L570.057,230.972L570.243,230.979L570.428,230.984L570.614,230.988L570.801,230.991L570.988,230.993L571.175,230.993L571.362,230.993L571.548,230.991L571.735,230.988L571.921,230.984L572.107,230.979L572.292,230.972L572.477,230.965L572.662,230.956L572.847,230.946L573.031,230.935L573.215,230.922L573.398,230.909L573.581,230.895L573.764,230.879L573.947,230.862L574.129,230.844L574.311,230.825L574.492,230.805L574.674,230.784L574.854,230.761L575.035,230.738L575.215,230.713L575.394,230.687L575.574,230.66L575.753,230.632L575.932,230.603L576.11,230.573L576.287,230.542L576.465,230.51L576.642,230.476L576.819,230.442L576.995,230.406L577.171,230.37L577.346,230.332L577.521,230.293L577.696,230.253L577.87,230.213L578.044,230.171L578.218,230.128L578.391,230.084L578.564,230.039L578.736,229.993L578.908,229.945L579.079,229.897L579.25,229.848L579.42,229.798L579.59,229.747L579.76,229.695L579.929,229.641L580.098,229.587L580.266,229.532L580.434,229.476L580.601,229.418L580.768,229.36L580.935,229.301L581.1,229.241L581.266,229.179L581.431,229.117L581.596,229.054L581.76,228.99L581.923,228.925L582.086,228.859L582.249,228.792L582.411,228.724L582.572,228.655L582.734,228.585L582.894,228.514L583.054,228.442L583.214,228.369L583.373,228.295L583.531,228.221L583.689,228.145L583.847,228.069L584.004,227.991L584.16,227.913L584.316,227.834L584.471,227.753L584.626,227.672L584.78,227.59L584.934,227.507L585.087,227.423L585.24,227.339L585.392,227.253L585.543,227.167L585.694,227.079L585.844,226.991L585.994,226.902L586.143,226.812L586.292,226.721L586.44,226.629L586.587,226.536L586.734,226.443L586.88,226.348L587.025,226.253L587.17,226.157L587.315,226.06L587.459,225.962L587.602,225.864L587.744,225.764L587.886,225.664L588.027,225.563L588.168,225.461L588.308,225.358L588.447,225.255L588.586,225.15L588.724,225.045L588.862,224.939L588.998,224.832L589.134,224.725L589.27,224.616L589.405,224.507L589.539,224.397L589.672,224.286L589.805,224.175L589.937,224.062L590.068,223.949L590.199,223.835L590.329,223.72L590.458,223.605L590.587,223.489L590.715,223.372L590.842,223.254L590.969,223.135L591.094,223.016L591.219,222.896L591.344,222.775L591.468,222.654L591.59,222.532L591.713,222.409L591.834,222.285L591.955,222.161L592.075,222.036L592.194,221.91L592.312,221.784L592.43,221.657L592.547,221.529L592.663,221.4L592.779,221.271L592.893,221.141L593.007,221.01L593.121,220.879L593.233,220.747L593.344,220.614L593.455,220.48L593.565,220.346L593.674,220.212L593.783,220.076L593.89,219.94L593.997,219.803L594.103,219.666L594.208,219.528L594.313,219.389L594.416,219.25L594.519,219.11L594.621,218.97L594.722,218.829L594.822,218.687L594.921,218.544L595.02,218.401L595.118,218.258L595.215,218.113L595.311,217.968L595.406,217.823L595.5,217.677L595.594,217.53L595.686,217.383L595.778,217.235L595.869,217.086L595.959,216.938L596.048,216.788L596.136,216.638L596.223,216.487L596.31,216.336L596.395,216.184L596.48,216.032L596.564,215.879L596.647,215.725L596.729,215.571L596.81,215.416L596.89,215.261L596.969,215.105L597.047,214.949L597.125,214.792L597.201,214.635L597.277,214.477L597.351,214.319L597.425,214.16L597.498,214L597.569,213.84L597.64,213.68L597.71,213.519L597.779,213.357L597.847,213.196L597.914,213.033L597.98,212.87L598.045,212.707L598.109,212.543L598.172,212.379L598.234,212.214L598.296,212.048L598.356,211.883L598.415,211.717L598.473,211.55L598.53,211.383L598.586,211.215L598.642,211.047L598.696,210.878L598.749,210.71L598.801,210.54L598.852,210.37L598.902,210.2L598.951,210.029L599,209.858L599.047,209.687L599.093,209.514L599.138,209.342L599.181,209.169L599.224,208.996L599.266,208.823L599.307,208.649L599.347,208.474L599.385,208.299L599.423,208.124L599.46,207.948L599.495,207.772L599.53,207.596L599.563,207.419L599.595,207.242L599.626,207.064L599.656,206.886L599.685,206.708L599.713,206.529L599.74,206.35L599.766,206.171L599.791,205.991L599.814,205.811L599.836,205.63L599.858,205.449L599.878,205.268L599.897,205.086L599.915,204.905L599.932,204.722L599.947,204.539L599.962,204.357L599.975,204.173L599.987,203.989L599.999,203.806L600.008,203.622L600.017,203.437L600.025,203.252L600.031,203.067L600.037,202.881L600.041,202.695L600.044,202.51L600.045,202.323L600.046,202.136L600.045,201.949L600.044,201.763L600.041,201.577L600.037,201.391L600.031,201.205L600.025,201.02L600.017,200.835L600.008,200.651L599.999,200.466L599.987,200.283L599.975,200.099L599.962,199.915L599.947,199.733L599.932,199.55L599.915,199.368L599.897,199.186L599.878,199.004L599.858,198.823L599.836,198.643L599.814,198.462L599.791,198.282L599.766,198.102L599.74,197.922L599.713,197.743L599.685,197.564L599.656,197.386L599.626,197.208L599.595,197.031L599.563,196.854L599.53,196.677L599.495,196.5L599.46,196.324L599.423,196.148L599.385,195.973L599.347,195.798L599.307,195.624L599.266,195.45L599.224,195.276L599.182,195.103L599.138,194.93L599.093,194.758L599.047,194.586L599,194.414L598.951,194.243L598.902,194.072L598.852,193.902L598.801,193.732L598.749,193.563L598.696,193.394L598.642,193.225L598.586,193.057L598.53,192.89L598.473,192.723L598.415,192.555L598.356,192.389L598.296,192.224L598.234,192.058L598.172,191.893L598.109,191.729L598.045,191.565L597.98,191.402L597.914,191.239L597.847,191.077L597.779,190.915L597.71,190.753L597.64,190.592L597.569,190.432L597.498,190.272L597.425,190.113L597.351,189.954L597.277,189.795L597.201,189.637L597.125,189.48L597.048,189.324L596.969,189.167L596.89,189.011L596.81,188.856L596.729,188.702L596.647,188.548L596.564,188.394L596.48,188.241L596.395,188.089L596.31,187.937L596.223,187.785L596.136,187.635L596.048,187.484L595.959,187.335L595.869,187.186L595.778,187.037L595.686,186.889L595.594,186.742L595.5,186.595L595.406,186.449L595.311,186.304L595.215,186.159L595.118,186.015L595.02,185.871L594.921,185.728L594.822,185.586L594.722,185.444L594.621,185.303L594.519,185.162L594.416,185.022L594.313,184.883L594.208,184.744L594.103,184.606L593.997,184.469L593.89,184.332L593.783,184.196L593.674,184.06L593.565,183.926L593.455,183.792L593.344,183.658L593.233,183.526L593.121,183.394L593.007,183.262L592.893,183.132L592.779,183.002L592.663,182.872L592.547,182.744L592.43,182.616L592.312,182.489L592.194,182.362L592.075,182.236L591.955,182.111L591.834,181.987L591.713,181.863L591.59,181.74L591.468,181.618L591.344,181.497L591.219,181.376L591.094,181.256L590.969,181.137L590.842,181.018L590.715,180.901L590.587,180.784L590.458,180.667L590.329,180.552L590.199,180.437L590.068,180.323L589.937,180.21L589.805,180.098L589.672,179.986L589.539,179.876L589.405,179.766L589.27,179.656L589.134,179.548L588.998,179.44L588.862,179.333L588.724,179.227L588.586,179.122L588.447,179.018L588.308,178.914L588.168,178.811L588.027,178.709L587.886,178.608L587.744,178.508L587.602,178.408L587.459,178.31L587.315,178.212L587.17,178.115L587.025,178.019L586.88,177.924L586.734,177.83L586.587,177.736L586.44,177.643L586.292,177.551L586.143,177.461L585.994,177.371L585.844,177.281L585.694,177.193L585.543,177.106L585.392,177.019L585.24,176.934L585.087,176.849L584.934,176.765L584.78,176.682L584.626,176.6L584.471,176.519L584.316,176.439L584.16,176.36L584.004,176.281L583.847,176.204L583.689,176.127L583.531,176.052L583.373,175.977L583.214,175.903L583.054,175.83L582.894,175.759L582.734,175.688L582.572,175.618L582.411,175.549L582.249,175.481L582.086,175.414L581.923,175.348L581.76,175.283L581.596,175.218L581.431,175.155L581.266,175.093L581.101,175.032L580.935,174.972L580.768,174.912L580.601,174.854L580.434,174.797L580.266,174.741L580.098,174.685L579.929,174.631L579.76,174.578L579.59,174.526L579.42,174.474L579.25,174.424L579.079,174.375L578.907,174.327L578.736,174.28L578.564,174.234L578.391,174.189L578.218,174.145L578.044,174.102L577.871,174.06L577.696,174.019L577.521,173.979L577.346,173.94L577.171,173.903L576.995,173.866L576.819,173.831L576.642,173.796L576.465,173.763L576.288,173.73L576.11,173.699L575.931,173.669L575.753,173.64L575.574,173.612L575.395,173.585L575.215,173.559L575.035,173.535L574.854,173.511L574.674,173.489L574.492,173.468L574.311,173.447L574.129,173.428L573.947,173.41L573.764,173.393L573.582,173.378L573.398,173.363L573.215,173.35L573.031,173.338L572.847,173.326L572.662,173.317L572.477,173.308L572.292,173.3L572.107,173.294L571.921,173.288L571.735,173.284L571.548,173.281L571.362,173.279L571.175,173.279L570.988,173.279Z" 
style="fill:rgb(250,2,60);fill-rule:nonzero;"/>
            </g>
            <g transform="matrix(1,0,0,1,262.442,168.082)">
                <path d="M564.854,172.611L564.854,155.545L579.916,155.545L579.916,172.611C577.502,172.021 574.98,171.709 572.385,171.709C569.79,171.709 567.268,172.021 564.854,172.611Z" style="fill:rgb(250,2,60);fill-rule:nonzero;"/>
            </g>
            <g transform="matrix(1,0,0,1.04208,262.567,161.669)">
                <path d="M575.619,155.418L568.901,155.418C568.901,155.418 571.063,27.271 571.27,15.015C571.279,14.494 571.719,14.076 572.259,14.076C572.26,14.076 572.26,14.076 572.261,14.076C572.801,14.076 573.241,14.494 573.25,15.015C573.457,27.271 575.619,155.418 575.619,155.418Z" style="fill:rgb(250,2,60);fill-rule:nonzero;"/>
            </g>
            <g transform="matrix(0.82769,0,0,0.93906,411.867,144.838)">
                <path d="M523.341,278.577L523.453,278.581L523.565,278.587L523.676,278.596L523.786,278.607L523.895,278.62L524.003,278.636L524.111,278.655L524.217,278.675L524.323,278.698L524.427,278.723L524.531,278.75L524.633,278.78L524.734,278.811L524.834,278.845L524.933,278.881L525.031,278.919L525.127,278.959L525.222,279.001L525.316,279.044L525.409,279.09L525.5,279.138L525.589,279.188L525.677,279.239L525.764,279.292L525.849,279.347L525.933,279.404L526.015,279.463L526.095,279.523L526.174,279.585L526.251,279.648L526.326,279.713L526.399,279.78L526.471,279.848L526.541,279.918L526.609,279.989L526.675,280.061L526.739,280.136L526.801,280.211L526.861,280.288L526.919,280.366L526.975,280.445L527.029,280.526L527.081,280.608L527.13,280.691L527.178,280.775L527.223,280.861L527.265,280.947L527.306,281.035L527.344,281.123L527.38,281.213L527.413,281.304L527.444,281.395L527.472,281.488L527.498,281.581L527.521,281.675L527.542,281.771L527.56,281.867L527.575,281.963L527.587,282.061L527.597,282.159L527.604,282.258L527.609,282.357L527.61,282.457L527.609,282.558L527.604,282.657L527.597,282.756L527.587,282.854L527.575,282.951L527.56,283.048L527.542,283.144L527.521,283.239L527.498,283.334L527.472,283.427L527.444,283.52L527.413,283.611L527.38,283.702L527.344,283.791L527.306,283.88L527.265,283.968L527.223,284.054L527.178,284.14L527.13,284.224L527.081,284.307L527.029,284.389L526.975,284.47L526.919,284.549L526.861,284.627L526.801,284.704L526.739,284.779L526.675,284.853L526.609,284.926L526.541,284.997L526.471,285.067L526.399,285.135L526.326,285.202L526.251,285.267L526.174,285.33L526.095,285.392L526.015,285.452L525.933,285.511L525.849,285.568L525.764,285.623L525.677,285.676L525.589,285.727L525.5,285.777L525.409,285.825L525.316,285.87L525.222,285.914L525.127,285.956L525.031,285.996L524.933,286.034L524.834,286.07L524.734,286.103L524.633,286.135L524.531,286.164L524.427,286.192L524.323,286.217L524.217,286.24L524.111,286.26L524.003,286.278L523.895,286.294L523.786,286.308L523.676,286.319L523.565,286.328L523.453,286.334L523.341,286.338L523.228,286.339L498.797,286.339L498.684,286.338L498.572,286.334L498.46,286.328L498.35,286.319L498.24,286.308L498.13,286.294L498.022,286.278L497.915,286.26L497.808,286.24L497.703,286.217L497.598,286.192L497.495,286.164L497.393,286.135L497.291,286.103L497.191,286.07L497.092,286.034L496.995,285.996L496.898,285.956L496.803,285.914L496.709,285.87L496.617,285.825L496.526,285.777L496.436,285.727L496.348,285.676L496.261,285.623L496.176,285.568L496.093,285.511L496.011,285.452L495.93,285.392L495.852,285.33L495.775,285.267L495.699,285.202L495.626,285.135L495.554,285.067L495.484,284.997L495.417,284.926L495.35,284.853L495.286,284.779L495.224,284.704L495.164,284.627L495.106,284.549L495.05,284.47L494.996,284.389L494.945,284.307L494.895,284.224L494.848,284.14L494.803,284.054L494.76,283.968L494.72,283.88L494.681,283.791L494.646,283.702L494.613,283.611L494.582,283.52L494.553,283.427L494.528,283.334L494.504,283.239L494.484,283.144L494.466,283.048L494.451,282.951L494.438,282.854L494.428,282.756L494.421,282.657L494.417,282.558L494.415,282.457L494.417,282.357L494.421,282.258L494.428,282.159L494.438,282.061L494.451,281.963L494.466,281.867L494.484,281.771L494.504,281.675L494.528,281.581L494.553,281.488L494.582,281.395L494.613,281.304L494.646,281.213L494.681,281.123L494.72,281.035L494.76,280.947L494.803,280.861L494.848,280.775L494.895,280.691L494.945,280.608L494.996,280.526L495.05,280.445L495.106,280.366L495.164,280.288L495.224,280.211L495.286,280.136L495.35,280.061L495.417,279.989L495.484,279.918L495.554,279.848L495.626,279.78L495.699,279.713L495.775,279.648L495.852,279.585L495.93,279.523L496.011,279.463L496.093,279.404L496.176,279.347L496.261,279.292L496.348,279.239L496.436,279.188L496.526,279.138L496.617,279.09L496.709,279.044L496.803,279.001L496.898,278.959L496.995,278.919L497.092,278.881L497.191,278.845L497.291,278.811L497.393,278.78L497.495,278.75L497.598,278.723L497.703,278.698L497.808,278.675L497.915,278.655L498.022,278.636L498.13,278.62L498.24,278.607L498.35,278.596L498.46,278.587L498.572,278.581L498.684,278.577L498.797,278.576L523.228,278.576L523.341,278.577ZM498.819,281.576L498.77,281.576L498.743,281.577L498.718,281.579L498.692,281.581L498.667,281.583L498.643,281.586L498.618,281.59L498.594,281.594L498.571,281.598L498.547,281.603L498.524,281.609L498.502,281.615L498.479,281.621L498.457,281.628L498.435,281.636L498.412,281.644L498.391,281.652L498.37,281.661L498.348,281.671L498.327,281.68L498.306,281.691L498.285,281.702L498.265,281.713L498.244,281.725L498.224,281.737L498.205,281.75L498.186,281.763L498.166,281.777L498.148,281.79L498.13,281.805L498.112,281.819L498.094,281.835L498.077,281.85L498.06,281.866L498.044,281.882L498.029,281.898L498.013,281.916L497.998,281.933L497.984,281.95L497.97,281.968L497.957,281.986L497.944,282.003L497.932,282.022L497.92,282.041L497.909,282.059L497.899,282.078L497.888,282.097L497.879,282.117L497.87,282.136L497.862,282.156L497.854,282.175L497.846,282.195L497.839,282.216L497.833,282.236L497.828,282.257L497.822,282.278L497.818,282.298L497.814,282.32L497.81,282.342L497.807,282.364L497.805,282.386L497.804,282.41L497.803,282.433L497.802,282.457L497.803,282.481L497.804,282.505L497.805,282.528L497.807,282.55L497.81,282.573L497.814,282.595L497.818,282.616L497.822,282.637L497.828,282.658L497.833,282.679L497.839,282.699L497.846,282.719L497.854,282.74L497.861,282.759L497.87,282.779L497.879,282.798L497.888,282.817L497.899,282.837L497.909,282.856L497.92,282.874L497.932,282.893L497.945,282.912L497.957,282.929L497.97,282.947L497.984,282.965L497.998,282.982L498.013,282.999L498.029,283.016L498.044,283.033L498.06,283.049L498.077,283.064L498.094,283.08L498.112,283.096L498.13,283.11L498.148,283.124L498.167,283.138L498.186,283.152L498.205,283.165L498.224,283.178L498.244,283.19L498.265,283.202L498.285,283.213L498.306,283.224L498.327,283.234L498.348,283.244L498.37,283.254L498.391,283.263L498.412,283.271L498.434,283.279L498.457,283.286L498.479,283.293L498.501,283.3L498.525,283.306L498.547,283.311L498.571,283.316L498.594,283.321L498.618,283.325L498.642,283.329L498.667,283.332L498.692,283.334L498.718,283.336L498.744,283.338L498.77,283.339L498.819,283.339L523.207,283.339L523.255,283.339L523.282,283.338L523.308,283.336L523.333,283.334L523.358,283.332L523.383,283.329L523.407,283.325L523.431,283.321L523.455,283.316L523.478,283.311L523.501,283.306L523.524,283.3L523.547,283.293L523.569,283.286L523.591,283.279L523.613,283.271L523.635,283.263L523.656,283.254L523.678,283.244L523.699,283.234L523.719,283.224L523.741,283.213L523.761,283.202L523.781,283.19L523.801,283.178L523.821,283.165L523.84,283.152L523.858,283.139L523.878,283.124L523.896,283.11L523.914,283.095L523.931,283.08L523.948,283.065L523.965,283.049L523.981,283.033L523.997,283.016L524.012,282.999L524.027,282.982L524.041,282.965L524.055,282.947L524.068,282.93L524.081,282.911L524.094,282.892L524.105,282.875L524.116,282.856L524.127,282.836L524.137,282.817L524.146,282.798L524.156,282.779L524.164,282.759L524.172,282.74L524.179,282.72L524.186,282.699L524.192,282.678L524.198,282.658L524.203,282.638L524.208,282.616L524.212,282.595L524.215,282.573L524.218,282.55L524.22,282.528L524.222,282.505L524.223,282.481L524.223,282.457L524.223,282.433L524.222,282.41L524.22,282.387L524.218,282.364L524.215,282.342L524.212,282.32L524.208,282.299L524.203,282.277L524.198,282.257L524.192,282.236L524.186,282.215L524.179,282.195L524.172,282.175L524.164,282.156L524.156,282.136L524.147,282.117L524.137,282.097L524.127,282.078L524.116,282.059L524.105,282.04L524.094,282.022L524.081,282.004L524.068,281.985L524.055,281.968L524.042,281.95L524.027,281.932L524.012,281.916L523.997,281.899L523.981,281.882L523.965,281.866L523.948,281.85L523.931,281.835L523.914,281.82L523.896,281.805L523.877,281.79L523.859,281.776L523.84,281.763L523.821,281.75L523.801,281.737L523.781,281.725L523.761,281.713L523.741,281.702L523.72,281.691L523.699,281.68L523.678,281.671L523.656,281.661L523.635,281.652L523.613,281.644L523.591,281.636L523.569,281.628L523.547,281.621L523.524,281.615L523.501,281.609L523.478,281.603L523.455,281.598L523.431,281.594L523.407,281.59L523.383,281.586L523.358,281.583L523.333,281.581L523.308,281.579L523.282,281.577L523.255,281.576L523.206,281.576L498.819,281.576Z" 
style="fill:rgb(250,2,60);fill-rule:nonzero;"/>
            </g>
        </g>
    </g>
</svg>
